{
	"asset":{
		"generator":"Khronos glTF Blender I/O v3.6.27",
		"version":"2.0"
	},
	"extensionsUsed":[
		"KHR_materials_specular",
		"KHR_materials_ior"
	],
	"scene":0,
	"scenes":[
		{
			"extras":{
				"assets used":{},
				"uuid":"857f81cf-6076-4089-9e13-e43fa9a971b4",
				"assets reported":{}
			},
			"name":"Scene",
			"nodes":[
				0,
				1,
				2,
				6
			]
		}
	],
	"nodes":[
		{
			"extras":{
				"MaxHandle":1196663
			},
			"mesh":0,
			"name":"pants2",
			"rotation":[
				0,
				0.04361937195062637,
				0,
				0.9990482330322266
			],
			"scale":[
				0.0010000000474974513,
				0.0010000000474974513,
				0.0010399998864158988
			],
			"translation":[
				-0.026943087577819824,
				-0.9275668859481812,
				-0.0071836188435554504
			]
		},
		{
			"extras":{
				"MaxHandle":1196664
			},
			"mesh":1,
			"name":"t-shirt2",
			"rotation":[
				0,
				0.043619368225336075,
				0,
				0.9990482330322266
			],
			"scale":[
				0.0010000000474974513,
				0.0010000000474974513,
				0.0010000000474974513
			],
			"translation":[
				-0.02700519561767578,
				-0.9251298904418945,
				0.000121288001537323
			]
		},
		{
			"extras":{
				"MaxHandle":1196677
			},
			"mesh":2,
			"name":"body2",
			"rotation":[
				0,
				0.043619368225336075,
				0,
				0.9990482330322266
			],
			"scale":[
				0.0010000000474974513,
				0.0010000000474974513,
				0.0010000000474974513
			],
			"translation":[
				0.7206195592880249,
				-0.927566647529602,
				-0.0659489706158638
			]
		},
		{
			"extras":{
				"MaxHandle":1196667
			},
			"mesh":3,
			"name":"Torus215",
			"rotation":[
				0.709864616394043,
				0.5241253972053528,
				0.38909345865249634,
				0.2645584046840668
			],
			"translation":[
				27.515867233276367,
				96.3406982421875,
				-30.071170806884766
			]
		},
		{
			"children":[
				3
			],
			"extras":{
				"MaxHandle":1196950
			},
			"name":"hoody laces2",
			"translation":[
				-1.9874286651611328,
				-3.48828125,
				4.9781494140625
			]
		},
		{
			"extras":{
				"MaxHandle":1196668
			},
			"mesh":4,
			"name":"Torus216",
			"rotation":[
				0.46502190828323364,
				0.5225749611854553,
				0.28680747747421265,
				0.6545315384864807
			],
			"translation":[
				30.497188568115234,
				106.705322265625,
				-35.936763763427734
			]
		},
		{
			"children":[
				4,
				5
			],
			"extras":{
				"MaxHandle":1196954
			},
			"name":"hoody laces2_1",
			"scale":[
				0.0010000000474974513,
				0.0010000000474974513,
				0.0010000000474974513
			],
			"translation":[
				-0.015369772911071777,
				0.6133255362510681,
				0.058230750262737274
			]
		}
	],
	"materials":[
		{
			"doubleSided":true,
			"extensions":{
				"KHR_materials_specular":{
					"specularColorFactor":[
						2.371357614441398,
						2.371357614441398,
						2.371357614441398
					]
				},
				"KHR_materials_ior":{
					"ior":1.4500000476837158
				}
			},
			"name":"pants white.001",
			"pbrMetallicRoughness":{
				"baseColorTexture":{
					"index":0
				},
				"metallicFactor":0
			}
		},
		{
			"doubleSided":true,
			"extensions":{
				"KHR_materials_specular":{
					"specularColorFactor":[
						2.371357614441398,
						2.371357614441398,
						2.371357614441398
					]
				},
				"KHR_materials_ior":{
					"ior":1.4500000476837158
				}
			},
			"name":"T-shirts everlast.001",
			"pbrMetallicRoughness":{
				"baseColorTexture":{
					"index":1
				},
				"metallicFactor":0
			}
		},
		{
			"doubleSided":true,
			"extensions":{
				"KHR_materials_specular":{
					"specularColorFactor":[
						2.371357614441398,
						2.371357614441398,
						2.371357614441398
					]
				},
				"KHR_materials_ior":{
					"ior":1.4500000476837158
				}
			},
			"name":"PVC FurnGrad Charcoal Gray.002",
			"pbrMetallicRoughness":{
				"baseColorFactor":[
					0.03921568766236305,
					0.03921568766236305,
					0.03921568766236305,
					1
				],
				"metallicFactor":0,
				"roughnessFactor":0.5527864098548889
			}
		},
		{
			"doubleSided":true,
			"extensions":{
				"KHR_materials_specular":{
					"specularColorFactor":[
						2.371357614441398,
						2.371357614441398,
						2.371357614441398
					]
				},
				"KHR_materials_ior":{
					"ior":1.4500000476837158
				}
			},
			"name":"buxiugang.017",
			"pbrMetallicRoughness":{
				"baseColorFactor":[
					0.27450981736183167,
					0.27450981736183167,
					0.27450981736183167,
					1
				],
				"metallicFactor":0,
				"roughnessFactor":0.5527864098548889
			}
		}
	],
	"meshes":[
		{
			"name":"Mesh.091",
			"primitives":[
				{
					"attributes":{
						"POSITION":0,
						"NORMAL":1,
						"TEXCOORD_0":2
					},
					"indices":3,
					"material":0
				}
			]
		},
		{
			"name":"Mesh.092",
			"primitives":[
				{
					"attributes":{
						"POSITION":4,
						"NORMAL":5,
						"TEXCOORD_0":6
					},
					"indices":7,
					"material":1
				}
			]
		},
		{
			"name":"Mesh.102",
			"primitives":[
				{
					"attributes":{
						"POSITION":8,
						"NORMAL":9,
						"TEXCOORD_0":10
					},
					"indices":11,
					"material":2
				}
			]
		},
		{
			"name":"Mesh.138",
			"primitives":[
				{
					"attributes":{
						"POSITION":12,
						"NORMAL":13,
						"TEXCOORD_0":14
					},
					"indices":15,
					"material":3
				}
			]
		},
		{
			"name":"Mesh.139",
			"primitives":[
				{
					"attributes":{
						"POSITION":16,
						"NORMAL":17,
						"TEXCOORD_0":18
					},
					"indices":15,
					"material":3
				}
			]
		}
	],
	"textures":[
		{
			"sampler":0,
			"source":0
		},
		{
			"sampler":0,
			"source":1
		}
	],
	"images":[
		{
			"bufferView":4,
			"mimeType":"image/png",
			"name":"8"
		},
		{
			"bufferView":9,
			"mimeType":"image/png",
			"name":"3"
		}
	],
	"accessors":[
		{
			"bufferView":0,
			"componentType":5126,
			"count":21055,
			"max":[
				280.5660095214844,
				1170.5098876953125,
				126.05144500732422
			],
			"min":[
				-188.0401611328125,
				177.45370483398438,
				-151.5705108642578
			],
			"type":"VEC3"
		},
		{
			"bufferView":1,
			"componentType":5126,
			"count":21055,
			"type":"VEC3"
		},
		{
			"bufferView":2,
			"componentType":5126,
			"count":21055,
			"type":"VEC2"
		},
		{
			"bufferView":3,
			"componentType":5123,
			"count":105135,
			"type":"SCALAR"
		},
		{
			"bufferView":5,
			"componentType":5126,
			"count":18635,
			"max":[
				267.65570068359375,
				1683.0159912109375,
				111.18826293945312
			],
			"min":[
				-255.73948669433594,
				1018.3271484375,
				-198.53822326660156
			],
			"type":"VEC3"
		},
		{
			"bufferView":6,
			"componentType":5126,
			"count":18635,
			"type":"VEC3"
		},
		{
			"bufferView":7,
			"componentType":5126,
			"count":18635,
			"type":"VEC2"
		},
		{
			"bufferView":8,
			"componentType":5123,
			"count":91341,
			"type":"SCALAR"
		},
		{
			"bufferView":10,
			"componentType":5126,
			"count":21439,
			"max":[
				-370.89837646484375,
				1936.16552734375,
				231.34237670898438
			],
			"min":[
				-1023.8921508789062,
				42.1790771484375,
				-227.74951171875
			],
			"type":"VEC3"
		},
		{
			"bufferView":11,
			"componentType":5126,
			"count":21439,
			"type":"VEC3"
		},
		{
			"bufferView":12,
			"componentType":5126,
			"count":21439,
			"type":"VEC2"
		},
		{
			"bufferView":13,
			"componentType":5123,
			"count":121194,
			"type":"SCALAR"
		},
		{
			"bufferView":14,
			"componentType":5126,
			"count":216,
			"max":[
				3.940791606903076,
				1.0099999904632568,
				3.9132094383239746
			],
			"min":[
				-3.940791606903076,
				-1.0099999904632568,
				-3.950000047683716
			],
			"type":"VEC3"
		},
		{
			"bufferView":15,
			"componentType":5126,
			"count":216,
			"type":"VEC3"
		},
		{
			"bufferView":16,
			"componentType":5126,
			"count":216,
			"type":"VEC2"
		},
		{
			"bufferView":17,
			"componentType":5123,
			"count":1104,
			"type":"SCALAR"
		},
		{
			"bufferView":18,
			"componentType":5126,
			"count":216,
			"max":[
				3.940791606903076,
				1.0099999904632568,
				3.9132094383239746
			],
			"min":[
				-3.940791606903076,
				-1.0099999904632568,
				-3.950000047683716
			],
			"type":"VEC3"
		},
		{
			"bufferView":19,
			"componentType":5126,
			"count":216,
			"type":"VEC3"
		},
		{
			"bufferView":20,
			"componentType":5126,
			"count":216,
			"type":"VEC2"
		}
	],
	"bufferViews":[
		{
			"buffer":0,
			"byteLength":252660,
			"byteOffset":0,
			"target":34962
		},
		{
			"buffer":0,
			"byteLength":252660,
			"byteOffset":252660,
			"target":34962
		},
		{
			"buffer":0,
			"byteLength":168440,
			"byteOffset":505320,
			"target":34962
		},
		{
			"buffer":0,
			"byteLength":210270,
			"byteOffset":673760,
			"target":34963
		},
		{
			"buffer":0,
			"byteLength":14192,
			"byteOffset":884032
		},
		{
			"buffer":0,
			"byteLength":223620,
			"byteOffset":898224,
			"target":34962
		},
		{
			"buffer":0,
			"byteLength":223620,
			"byteOffset":1121844,
			"target":34962
		},
		{
			"buffer":0,
			"byteLength":149080,
			"byteOffset":1345464,
			"target":34962
		},
		{
			"buffer":0,
			"byteLength":182682,
			"byteOffset":1494544,
			"target":34963
		},
		{
			"buffer":0,
			"byteLength":65885,
			"byteOffset":1677228
		},
		{
			"buffer":0,
			"byteLength":257268,
			"byteOffset":1743116,
			"target":34962
		},
		{
			"buffer":0,
			"byteLength":257268,
			"byteOffset":2000384,
			"target":34962
		},
		{
			"buffer":0,
			"byteLength":171512,
			"byteOffset":2257652,
			"target":34962
		},
		{
			"buffer":0,
			"byteLength":242388,
			"byteOffset":2429164,
			"target":34963
		},
		{
			"buffer":0,
			"byteLength":2592,
			"byteOffset":2671552,
			"target":34962
		},
		{
			"buffer":0,
			"byteLength":2592,
			"byteOffset":2674144,
			"target":34962
		},
		{
			"buffer":0,
			"byteLength":1728,
			"byteOffset":2676736,
			"target":34962
		},
		{
			"buffer":0,
			"byteLength":2208,
			"byteOffset":2678464,
			"target":34963
		},
		{
			"buffer":0,
			"byteLength":2592,
			"byteOffset":2680672,
			"target":34962
		},
		{
			"buffer":0,
			"byteLength":2592,
			"byteOffset":2683264,
			"target":34962
		},
		{
			"buffer":0,
			"byteLength":1728,
			"byteOffset":2685856,
			"target":34962
		}
	],
	"samplers":[
		{
			"magFilter":9729,
			"minFilter":9987
		}
	],
	"buffers":[
		{
			"byteLength":2687584,
			"uri":"data:application/octet-stream;base64,"
		}
	]
}
