{
	"asset":{
		"generator":"Khronos glTF Blender I/O v3.6.27",
		"version":"2.0"
	},
	"extensionsUsed":[
		"KHR_materials_specular",
		"KHR_materials_ior"
	],
	"scene":0,
	"scenes":[
		{
			"extras":{
				"assets used":{},
				"uuid":"857f81cf-6076-4089-9e13-e43fa9a971b4",
				"assets reported":{}
			},
			"name":"Scene",
			"nodes":[
				0,
				1,
				2
			]
		}
	],
	"nodes":[
		{
			"extras":{
				"MaxHandle":1196693
			},
			"mesh":0,
			"name":"body4.001",
			"rotation":[
				0,
				-0.08715574443340302,
				0,
				0.9961947202682495
			],
			"scale":[
				0.0010000000474974513,
				0.0010000000474974513,
				0.0010000000474974513
			],
			"translation":[
				-0.01677769422531128,
				-0.8938084840774536,
				0.021642014384269714
			]
		},
		{
			"extras":{
				"MaxHandle":1196689
			},
			"mesh":1,
			"name":"pants4.001",
			"rotation":[
				0,
				-0.08715574443340302,
				0,
				0.9961947202682495
			],
			"scale":[
				0.0010000000474974513,
				0.0010000000474974513,
				0.0010000000474974513
			],
			"translation":[
				-0.016778409481048584,
				-0.8938084840774536,
				0.02124200016260147
			]
		},
		{
			"extras":{
				"MaxHandle":1196691
			},
			"mesh":2,
			"name":"t-shirt4",
			"rotation":[
				0,
				-0.08715574443340302,
				0,
				0.9961947202682495
			],
			"scale":[
				0.0010000000474974513,
				0.0010000000474974513,
				0.0010000000474974513
			],
			"translation":[
				-0.016778647899627686,
				-0.8938086032867432,
				0.021642401814460754
			]
		}
	],
	"materials":[
		{
			"doubleSided":true,
			"extensions":{
				"KHR_materials_specular":{
					"specularColorFactor":[
						2.371357614441398,
						2.371357614441398,
						2.371357614441398
					]
				},
				"KHR_materials_ior":{
					"ior":1.4500000476837158
				}
			},
			"name":"PVC FurnGrad Charcoal Gray.007",
			"pbrMetallicRoughness":{
				"baseColorFactor":[
					0.03921568766236305,
					0.03921568766236305,
					0.03921568766236305,
					1
				],
				"metallicFactor":0,
				"roughnessFactor":0.5527864098548889
			}
		},
		{
			"doubleSided":true,
			"extensions":{
				"KHR_materials_specular":{
					"specularColorFactor":[
						2.371357614441398,
						2.371357614441398,
						2.371357614441398
					]
				},
				"KHR_materials_ior":{
					"ior":1.4500000476837158
				}
			},
			"name":"pants adidas.003",
			"pbrMetallicRoughness":{
				"baseColorTexture":{
					"index":0
				},
				"metallicFactor":0
			}
		},
		{
			"doubleSided":true,
			"extensions":{
				"KHR_materials_specular":{
					"specularColorFactor":[
						2.371357614441398,
						2.371357614441398,
						2.371357614441398
					]
				},
				"KHR_materials_ior":{
					"ior":1.4500000476837158
				}
			},
			"name":"T-shirts superman.001",
			"pbrMetallicRoughness":{
				"baseColorTexture":{
					"index":1
				},
				"metallicFactor":0
			}
		}
	],
	"meshes":[
		{
			"name":"Mesh.116",
			"primitives":[
				{
					"attributes":{
						"POSITION":0,
						"NORMAL":1,
						"TEXCOORD_0":2
					},
					"indices":3,
					"material":0
				}
			]
		},
		{
			"name":"Mesh.117",
			"primitives":[
				{
					"attributes":{
						"POSITION":4,
						"NORMAL":5,
						"TEXCOORD_0":6
					},
					"indices":7,
					"material":1
				}
			]
		},
		{
			"name":"Mesh.118",
			"primitives":[
				{
					"attributes":{
						"POSITION":8,
						"NORMAL":9,
						"TEXCOORD_0":10
					},
					"indices":11,
					"material":2
				}
			]
		}
	],
	"textures":[
		{
			"sampler":0,
			"source":0
		},
		{
			"sampler":0,
			"source":1
		}
	],
	"images":[
		{
			"bufferView":8,
			"mimeType":"image/png",
			"name":"9"
		},
		{
			"bufferView":13,
			"mimeType":"image/png",
			"name":"4"
		}
	],
	"accessors":[
		{
			"bufferView":0,
			"componentType":5126,
			"count":21439,
			"max":[
				333.8391418457031,
				1934.2655029296875,
				258.2696228027344
			],
			"min":[
				-294.34515380859375,
				41.48894500732422,
				-195.7684326171875
			],
			"type":"VEC3"
		},
		{
			"bufferView":1,
			"componentType":5126,
			"count":21439,
			"type":"VEC3"
		},
		{
			"bufferView":2,
			"componentType":5126,
			"count":21439,
			"type":"VEC2"
		},
		{
			"bufferView":3,
			"componentType":5123,
			"count":121194,
			"type":"SCALAR"
		},
		{
			"bufferView":4,
			"componentType":5126,
			"count":19863,
			"max":[
				231.2146453857422,
				1171.354248046875,
				137.37513732910156
			],
			"min":[
				-197.86727905273438,
				167.24832153320312,
				-152.51454162597656
			],
			"type":"VEC3"
		},
		{
			"bufferView":5,
			"componentType":5126,
			"count":19863,
			"type":"VEC3"
		},
		{
			"bufferView":6,
			"componentType":5126,
			"count":19863,
			"type":"VEC2"
		},
		{
			"bufferView":7,
			"componentType":5123,
			"count":101124,
			"type":"SCALAR"
		},
		{
			"bufferView":9,
			"componentType":5126,
			"count":18865,
			"max":[
				296.18402099609375,
				1685.6224365234375,
				118.416748046875
			],
			"min":[
				-270.4191589355469,
				1041.9296875,
				-197.71417236328125
			],
			"type":"VEC3"
		},
		{
			"bufferView":10,
			"componentType":5126,
			"count":18865,
			"type":"VEC3"
		},
		{
			"bufferView":11,
			"componentType":5126,
			"count":18865,
			"type":"VEC2"
		},
		{
			"bufferView":12,
			"componentType":5123,
			"count":91527,
			"type":"SCALAR"
		}
	],
	"bufferViews":[
		{
			"buffer":0,
			"byteLength":257268,
			"byteOffset":0,
			"target":34962
		},
		{
			"buffer":0,
			"byteLength":257268,
			"byteOffset":257268,
			"target":34962
		},
		{
			"buffer":0,
			"byteLength":171512,
			"byteOffset":514536,
			"target":34962
		},
		{
			"buffer":0,
			"byteLength":242388,
			"byteOffset":686048,
			"target":34963
		},
		{
			"buffer":0,
			"byteLength":238356,
			"byteOffset":928436,
			"target":34962
		},
		{
			"buffer":0,
			"byteLength":238356,
			"byteOffset":1166792,
			"target":34962
		},
		{
			"buffer":0,
			"byteLength":158904,
			"byteOffset":1405148,
			"target":34962
		},
		{
			"buffer":0,
			"byteLength":202248,
			"byteOffset":1564052,
			"target":34963
		},
		{
			"buffer":0,
			"byteLength":13678,
			"byteOffset":1766300
		},
		{
			"buffer":0,
			"byteLength":226380,
			"byteOffset":1779980,
			"target":34962
		},
		{
			"buffer":0,
			"byteLength":226380,
			"byteOffset":2006360,
			"target":34962
		},
		{
			"buffer":0,
			"byteLength":150920,
			"byteOffset":2232740,
			"target":34962
		},
		{
			"buffer":0,
			"byteLength":183054,
			"byteOffset":2383660,
			"target":34963
		},
		{
			"buffer":0,
			"byteLength":63571,
			"byteOffset":2566716
		}
	],
	"samplers":[
		{
			"magFilter":9729,
			"minFilter":9987
		}
	],
	"buffers":[
		{
			"byteLength":2630288,
			"uri":"data:application/octet-stream;base64,"
		}
	]
}
